[img]http://i.imgur.com/pEROQ.png[/img]

[code]
Universal.Soldier.Day.of.Reckoning.2012.480p.BDRip.XViD.AC3-26k
 
http://www.imdb.com/title/tt1659343/

Plot:

John looks to take down Luc Deveraux after a home invasion claims his wife and daughter. The fight pits John 
against Andrew Scott and an army of genetically enhanced warriors; meanwhile, he must contend with a UniSol 
in relentless pursuit.

Sources - VIDEO: UNVRSL_SLDR4_BB ..... thanks .... :P
          AUDIO: UNVRSL_SLDR4_BB ..... thanks .... :P

Format                                   : AVI
Format/Info                              : Audio Video Interleave
Format profile                           : OpenDML
File size                                : 2.00 GiB
Duration                                 : 1h 53mn
Overall bit rate                         : 2 524 Kbps
Writing library                          : VirtualDub build 32839/release

Video
ID                                       : 0
Format                                   : MPEG-4 Visual
Format profile                           : Advanced Simple@L5
Format settings, BVOP                    : 2
Format settings, QPel                    : No
Format settings, GMC                     : No warppoints
Format settings, Matrix                  : Default (H.263)
Codec ID                                 : XVID
Codec ID/Hint                            : XviD
Duration                                 : 1h 53mn
Bit rate                                 : 2 000 Kbps
Width                                    : 720 pixels
Height                                   : 304 pixels
Display aspect ratio                     : 2.35:1
Frame rate                               : 23.976 fps
Color space                              : YUV
Chroma subsampling                       : 4:2:0
Bit depth                                : 8 bits
Scan type                                : Progressive
Compression mode                         : Lossy
Bits/(Pixel*Frame)                       : 0.381
Stream size                              : 1.59 GiB (79%)
Writing library                          : XviD 1.2.1 (UTC 2008-12-04)

Audio
ID                                       : 1
Format                                   : AC-3
Format/Info                              : Audio Coding 3
Mode extension                           : CM (complete main)
Format settings, Endianness              : Big
Codec ID                                 : 2000
Duration                                 : 1h 53mn
Bit rate mode                            : Constant
Bit rate                                 : 512 Kbps
Channel(s)                               : 6 channels
Channel positions                        : Front: L C R, Side: L R, LFE
Sampling rate                            : 48.0 KHz
Bit depth                                : 16 bits
Compression mode                         : Lossy
Stream size                              : 416 MiB (20%)
Alignment                                : Split accross interleaves
Interleave, duration                     : 42 ms (1.00 video frame)
Interleave, preload duration             : 500 ms

Notes -

Took the BD made a script to make magic happen and this is the outcome.. enjoy

[/code]

Screens:

[img]http://i.imgur.com/TNr7w.png[/img]
[img]http://i.imgur.com/5yxTP.png[/img]
[img]http://i.imgur.com/P7IyZ.png[/img]
[img]http://i.imgur.com/zTGgN.jpg[/img]
[img]http://imageshack.us/a/img547/7510/85747300.png[/img]
[img]http://imageshack.us/a/img580/9879/57978478.png[/img]
[img]http://imageshack.us/a/img694/4467/29222417.png[/img]
[img]http://imageshack.us/a/img69/1336/39201165.png[/img]

Greetz:
XtremeEncode|CM8|RX|VISION|HDSCENE|xTriLL|ADTRG|CRYS|REMIXHD|HS|Tommiecook
BIDA|RX|REFILL|INSPiRAL|AXED|HOPE|Anonymous|GooN|NOIR|Blackjesus|Gabroo Punjab Deh
|UNiQUE|RESiSTANCE|TRiNiTY|LEGION

To all the people who have helped me, you know who you are

Anything to offer email us @: 26k@hushmail.me 